<svg xmlns="http://www.w3.org/2000/svg" xmlns:xlink="http://www.w3.org/1999/xlink" width="13.094" height="16.125" viewBox="0 0 13.094 16.125">
  <metadata><?xpacket begin="﻿" id="W5M0MpCehiHzreSzNTczkc9d"?>
<x:xmpmeta xmlns:x="adobe:ns:meta/" x:xmptk="Adobe XMP Core 5.6-c140 79.160451, 2017/05/06-01:08:21        ">
   <rdf:RDF xmlns:rdf="http://www.w3.org/1999/02/22-rdf-syntax-ns#">
      <rdf:Description rdf:about=""/>
   </rdf:RDF>
</x:xmpmeta>
                                                                                                    
                                                                                                    
                                                                                                    
                                                                                                    
                                                                                                    
                                                                                                    
                                                                                                    
                                                                                                    
                                                                                                    
                                                                                                    
                                                                                                    
                                                                                                    
                                                                                                    
                                                                                                    
                                                                                                    
                                                                                                    
                                                                                                    
                                                                                                    
                                                                                                    
                                                                                                    
                           
<?xpacket end="w"?></metadata>
<defs>
    <style>
      .cls-1 {
        fill: #fff;
        fill-rule: evenodd;
        filter: url(#filter);
      }
    </style>
    <filter id="filter" x="859" y="15.969" width="13.094" height="16.125" filterUnits="userSpaceOnUse">
      <feFlood result="flood" flood-color="#d4d4d4"/>
      <feComposite result="composite" operator="in" in2="SourceGraphic"/>
      <feBlend result="blend" in2="SourceGraphic"/>
    </filter>
  </defs>
  <path id="evernote" class="cls-1" d="M867.969,28.969V28.041a14.518,14.518,0,0,0-1.913,0,1.475,1.475,0,0,0-.791.472,2.117,2.117,0,0,0-.229.889c-0.013.205-.018,0.538-0.018,0.712a5.484,5.484,0,0,0,.068.92,1.957,1.957,0,0,0,.151.521,0.42,0.42,0,0,0,.1.14,0.768,0.768,0,0,0,.175.118,1.812,1.812,0,0,0,.438.133,15.878,15.878,0,0,0,4.368-.005,1.343,1.343,0,0,0,.584-0.461,4.362,4.362,0,0,0,.81-1.657,26.02,26.02,0,0,0,.344-5.668c0-1.874-.142-3.628-0.213-4.563-0.077-1-.077-1.53-1.409-1.646l-0.554-.072s-3.067-.541-3.144-0.827a1.665,1.665,0,0,0-.277-0.587,1.042,1.042,0,0,0-.38-0.312A1.892,1.892,0,0,0,865.528,16c-0.212-.029-0.817-0.029-0.967-0.027a0.551,0.551,0,0,0-.576.544c0,0.48,0,3.273,0,3.755a1.672,1.672,0,0,1-.109.63,1.905,1.905,0,0,1-.688.107c-0.147.056-3.7,0-3.7,0a0.651,0.651,0,0,0-.456.883,23.282,23.282,0,0,0,.664,2.415,8.311,8.311,0,0,0,.477,1.412,1.73,1.73,0,0,0,.3.467,0.742,0.742,0,0,0,.186.123,2.519,2.519,0,0,0,.307.125,7.689,7.689,0,0,0,.859.224c0.646,0.135,1.392.239,1.972,0.3,0.386,0.041.7,0.063,0.856,0.063h0a0.21,0.21,0,0,0,.121-0.037,0.357,0.357,0,0,0,.1-0.115,1.324,1.324,0,0,0,.139-0.429c0.064-.346.074-0.765,0.1-1.036a1.219,1.219,0,0,1,.029-0.2,0.288,0.288,0,0,1,.029-0.078A0.144,0.144,0,0,1,865.2,25.1a0.1,0.1,0,0,1,.061-0.021h0a0.135,0.135,0,0,1,.062.016,0.21,0.21,0,0,1,.044.034,0.527,0.527,0,0,1,.068.09c0.043,0.069.089,0.16,0.146,0.262a2.291,2.291,0,0,0,.506.655,1.821,1.821,0,0,0,.594.493c0.329,0.083.7,0.135,1.052,0.193a15.1,15.1,0,0,1,1.705.233,0.906,0.906,0,0,1,.416.314,1.264,1.264,0,0,1,.1.412c0.034,0.345.067,0.727,0.067,1.084a3.405,3.405,0,0,1-.058.679,0.991,0.991,0,0,1-.228.5,11.99,11.99,0,0,1-2.743-.028,0.734,0.734,0,0,1-.21-0.759c0.094-.437.75-0.312,0.75-0.312Zm0.7,1.612h0m-0.908-1.118h0m-4.821-13.494,0.024,3.2a0.723,0.723,0,0,1-.671.815c-0.719,0-3.3-.024-3.3-0.024Zm6.923,6.509s-0.449-1.376-1.346-1.436-2,1.735-1.226,1.855,0.478-.18,1.076-0.209a6.76,6.76,0,0,1,1.287.209C870.106,22.926,869.867,22.627,869.867,22.477Z" transform="translate(-859 -15.969)"/>
</svg>
