<svg xmlns="http://www.w3.org/2000/svg" xmlns:xlink="http://www.w3.org/1999/xlink" width="16" height="13.094" viewBox="0 0 16 13.094">
  <metadata><?xpacket begin="﻿" id="W5M0MpCehiHzreSzNTczkc9d"?>
<x:xmpmeta xmlns:x="adobe:ns:meta/" x:xmptk="Adobe XMP Core 5.6-c140 79.160451, 2017/05/06-01:08:21        ">
   <rdf:RDF xmlns:rdf="http://www.w3.org/1999/02/22-rdf-syntax-ns#">
      <rdf:Description rdf:about=""/>
   </rdf:RDF>
</x:xmpmeta>
                                                                                                    
                                                                                                    
                                                                                                    
                                                                                                    
                                                                                                    
                                                                                                    
                                                                                                    
                                                                                                    
                                                                                                    
                                                                                                    
                                                                                                    
                                                                                                    
                                                                                                    
                                                                                                    
                                                                                                    
                                                                                                    
                                                                                                    
                                                                                                    
                                                                                                    
                                                                                                    
                           
<?xpacket end="w"?></metadata>
<defs>
    <style>
      .cls-1 {
        fill: #fff;
        fill-rule: evenodd;
        filter: url(#filter);
      }
    </style>
    <filter id="filter" x="882.062" y="17.906" width="16" height="13.094" filterUnits="userSpaceOnUse">
      <feFlood result="flood" flood-color="#d4d4d4"/>
      <feComposite result="composite" operator="in" in2="SourceGraphic"/>
      <feBlend result="blend" in2="SourceGraphic"/>
    </filter>
  </defs>
  <path id="twitter_bird" data-name="twitter bird" class="cls-1" d="M882.458,23.343c0,1.585,1.367,2.4,2.863,2.7a2.074,2.074,0,0,1-1.414.244c0.416,1.3,1.592,1.745,3.024,1.771a6.481,6.481,0,0,1-4.094,1.152,6.609,6.609,0,0,1-.78-0.046,9.618,9.618,0,0,0,5.014,1.842,8.516,8.516,0,0,0,8.937-8.79c0-.142,0-0.283-0.01-0.423a8.811,8.811,0,0,0,2.055-1.756,6.779,6.779,0,0,1-1.932.092,2.68,2.68,0,0,0,1.6-2.106,7.984,7.984,0,0,1-2.237,1.027A3.385,3.385,0,0,0,893.1,17.9a3.245,3.245,0,0,0-3,3.484,2.5,2.5,0,0,0,.054.652c-2.719-.136-5.6-1.028-7.217-3.007a3.261,3.261,0,0,0-.443,1.644,3.567,3.567,0,0,0,1.748,2.722A2.834,2.834,0,0,1,882.458,23.343Z" transform="translate(-882.062 -17.906)"/>
</svg>
