<svg xmlns="http://www.w3.org/2000/svg" width="16" height="16.156" viewBox="0 0 16 16.156">
  <metadata><?xpacket begin="﻿" id="W5M0MpCehiHzreSzNTczkc9d"?>
<x:xmpmeta xmlns:x="adobe:ns:meta/" x:xmptk="Adobe XMP Core 5.6-c140 79.160451, 2017/05/06-01:08:21        ">
   <rdf:RDF xmlns:rdf="http://www.w3.org/1999/02/22-rdf-syntax-ns#">
      <rdf:Description rdf:about=""/>
   </rdf:RDF>
</x:xmpmeta>
                                                                                                    
                                                                                                    
                                                                                                    
                                                                                                    
                                                                                                    
                                                                                                    
                                                                                                    
                                                                                                    
                                                                                                    
                                                                                                    
                                                                                                    
                                                                                                    
                                                                                                    
                                                                                                    
                                                                                                    
                                                                                                    
                                                                                                    
                                                                                                    
                                                                                                    
                                                                                                    
                           
<?xpacket end="w"?></metadata>
<defs>
    <style>
      .cls-1 {
        fill: #ddd;
        fill-rule: evenodd;
      }
    </style>
  </defs>
  <path id="speech_bubbles_copy_3" data-name="speech bubbles copy 3" class="cls-1" d="M106,871h8a2,2,0,0,1,2,2v5a2,2,0,0,1-2,2h-8a2,2,0,0,1-2-2v-5A2,2,0,0,1,106,871Zm0.094,8.625v4.531L110,879.875ZM109,868.281h6.75a2,2,0,0,1,2,2v5.688a2,2,0,0,1-2,2H109a2,2,0,0,1-2-2v-5.688A2,2,0,0,1,109,868.281Zm1-.281h8a2,2,0,0,1,2,2v4.968a2,2,0,0,1-2,2h-8a2,2,0,0,1-2-2V870A2,2,0,0,1,110,868Zm8,7.656V881l-3.937-4.031Zm-0.031,5.313-3.531-3.751-1.563.032,3.948,4.343Z" transform="translate(-104 -868)"/>
</svg>
